<?xml version="1.0" encoding="utf-8"?>
<svg xmlns="http://www.w3.org/2000/svg" width="350px" height="61px">
<path fill="#57068C" d="M60.69,60.35H1V0.65h59.69V60.35z M75.77,37.23h2.93v-8.56l6.53,8.56h2.52V23.76h-2.93v8.3l-6.31-8.3h-2.73V37.23z M92.9,37.23h10.26V34.6h-7.32v-2.83h6.35v-2.64h-6.35V26.4h7.22v-2.64H92.9V37.23z M111.28,37.33h2.58l3.04-8.81l3.04,8.81h2.58l4.6-13.57h-3.1l-2.79,9.12l-3.02-9.16h-2.54l-3.02,9.16l-2.79-9.12h-3.18L111.28,37.33z M142.74,37.23h2.97v-5.37l5.17-8.1h-3.37l-3.27,5.41l-3.21-5.41h-3.46l5.18,8.16V37.23z M152.61,30.54c0-3.87,3.02-7,7.18-7c4.16,0,7.14,3.09,7.14,6.92c0,3.87-3.02,7.01-7.18,7.01C155.59,37.47,152.61,34.37,152.61,30.54z M163.83,30.54c0-2.35-1.69-4.27-4.08-4.27c-2.39,0-4.04,1.88-4.04,4.19c0,2.35,1.69,4.27,4.08,4.27C162.18,34.73,163.83,32.85,163.83,30.54z M171.49,23.76h6.16c1.72,0,3.05,0.48,3.93,1.37c0.75,0.75,1.15,1.81,1.15,3.08c0,2.22-1.17,3.58-2.88,4.22l3.29,4.81h-3.46l-2.89-4.31c-0.04,0-2.33,0-2.33,0v4.31h-2.97V23.76z M177.46,30.31c1.44,0,2.27-0.77,2.27-1.91c0-1.31-0.88-1.96-2.33-1.96h-2.94v3.87H177.46z M187.34,37.23h2.96v-4.12l1.56-1.62l4.18,5.74h3.56l-5.73-7.76l5.48-5.71h-3.58l-5.47,5.89v-5.89h-2.96V37.23z M216.63,37.44c3.62,0,5.91-2,5.91-6.08v-7.6h-2.97v7.72c0,2.14-1.1,3.23-2.91,3.23c-1.81,0-2.9-1.14-2.9-3.33v-7.62h-2.96v7.7C210.8,35.42,213.01,37.44,216.63,37.44z M227.49,37.23h2.92v-8.56l6.53,8.56h2.52V23.76h-2.93v8.3l-6.31-8.3h-2.73V37.23z M244.75,37.23h2.96V23.76h-2.96V37.23z M257.3,37.33h2.62l5.45-13.57h-3.2l-3.52,9.49l-3.52-9.49h-3.27L257.3,37.33z M269.37,37.23h10.26V34.6h-7.31v-2.83h6.35v-2.64h-6.35V26.4h7.22v-2.64h-10.17V37.23z M284.19,23.76h6.16c1.72,0,3.04,0.48,3.93,1.37c0.75,0.75,1.15,1.81,1.15,3.08c0,2.22-1.17,3.58-2.88,4.22l3.28,4.81h-3.46l-2.89-4.31c-0.04,0-2.33,0-2.33,0v4.31h-2.96V23.76z M290.16,30.31c1.44,0,2.27-0.77,2.27-1.91c0-1.31-0.88-1.96-2.32-1.96h-2.95v3.87H290.16z M304.82,37.43c2.91,0,4.95-1.5,4.95-4.22c0-2.35-1.54-3.33-4.27-4.04c-2.33-0.6-2.91-0.88-2.91-1.81c0-0.65,0.6-1.17,1.73-1.17c1.14,0,2.31,0.5,3.5,1.33l1.54-2.23c-1.36-1.1-3.04-1.72-5-1.72c-2.75,0-4.72,1.62-4.72,4.1c0,2.68,1.75,3.43,4.47,4.12c2.25,0.58,2.72,0.96,2.72,1.75c0,0.79-0.74,1.27-1.95,1.27c-1.54,0-2.81-0.64-4.03-1.64l-1.75,2.09C300.73,36.72,302.78,37.43,304.82,37.43z M314.41,37.23h2.96V23.76h-2.96V37.23z M325.81,37.23h2.96V26.5h4.1v-2.73h-11.17v2.73h4.1V37.23z M340.86,37.23h2.96v-5.37l5.18-8.1h-3.37l-3.27,5.41l-3.21-5.41h-3.46l5.18,8.16V37.23z"/>
<path fill="#FFFFFF" d="M27.3,31.79c-6.12-3.65-5.51-8.86-2.97-12.7c0.06-0.08,0.07-0.21,0.06-0.37c-0.1-0.91-1.1-3.22-1.51-3.84c-0.11-0.16-0.2-0.15-0.21-0.04c-0.04,1.04-1.23,3.66-3.04,6.66c-1.93,3.21-1.94,10.16,7.65,10.43C27.37,31.94,27.39,31.84,27.3,31.79z M28.94,31.52c-3.66-7.81,3.66-12.86,4.85-13.96c0.17-0.15,0.13-0.29,0.13-0.47c0-2.46-1.4-6.44-1.86-7.01c-0.07-0.09-0.12-0.05-0.15,0.04c-0.63,2.43-3.96,6.04-4.63,6.83c-5.65,6.71-4.36,10.8,1.54,14.66C28.89,31.66,28.98,31.61,28.94,31.52z M30.13,31.19c1.73-8.29,8.48-8.49,9.08-10.06c0.94-2.45-0.78-6.81-1.22-7.32c-0.04-0.06-0.1-0.02-0.12,0.03c-0.92,2.01-2.4,3.92-3.49,4.8c-1.53,1.23-7.39,5.58-4.39,12.57C30.03,31.28,30.11,31.26,30.13,31.19z M31.33,31.91c10.92,0.39,11.7-9.56,11.74-13.29c0-0.22-0.1-0.23-0.16-0.09c-0.32,0.78-1.74,3.55-5.68,5.24c-3.52,1.51-5.63,4.93-6,8.01C31.22,31.86,31.28,31.91,31.33,31.91z M33.82,33.13H25.2v2.51h8.61V33.13z M28.78,53.37c0.07,0.42,0.98,0.63,1.18,0l2.09-16.54h-5.07L28.78,53.37z"/>
</svg>